<?xml version="1.0" standalone="no"?>
<!DOCTYPE svg PUBLIC "-//W3C//DTD SVG 20010904//EN"
 "http://www.w3.org/TR/2001/REC-SVG-20010904/DTD/svg10.dtd">
<svg version="1.0" xmlns="http://www.w3.org/2000/svg"
 width="185.000000pt" height="185.000000pt" viewBox="0 0 185.000000 185.000000"
 preserveAspectRatio="xMidYMid meet">
<metadata>
Created by potrace 1.14, written by Peter Selinger 2001-2017
</metadata>
<g transform="translate(0.000000,185.000000) scale(0.100000,-0.100000)"
fill="#000000" stroke="none">
<path d="M0 1834 c0 -14 3 -14 15 -4 8 7 15 14 15 16 0 2 -7 4 -15 4 -8 0 -15
-7 -15 -16z"/>
<path d="M18 1817 c-11 -15 -18 -30 -16 -33 7 -7 38 7 38 17 0 4 8 13 18 18
14 8 18 5 19 -12 2 -19 -30 -57 -49 -57 -4 0 -8 -5 -8 -12 0 -9 3 -9 12 0 15
15 51 15 65 1 9 -9 10 -6 6 11 -4 13 0 25 8 31 8 5 9 9 3 9 -7 0 -14 7 -17 14
-4 10 -1 13 8 10 14 -6 55 12 55 24 0 4 -27 7 -61 7 -56 0 -63 -2 -81 -28z"/>
<path d="M305 1830 c-10 -11 -22 -17 -26 -14 -5 3 -17 0 -26 -5 -17 -10 -17
-10 0 -11 16 0 13 -8 -18 -50 -21 -28 -35 -54 -31 -57 9 -9 121 115 134 148 6
16 -15 9 -33 -11z"/>
<path d="M415 1818 c-5 -18 -7 -51 -6 -73 3 -51 -12 -91 -40 -105 -17 -9 -20
-9 -14 0 5 9 1 10 -16 5 -23 -8 -159 -13 -159 -7 0 2 5 12 10 23 8 13 7 19 0
19 -6 0 -13 -6 -16 -13 -6 -17 -146 -19 -141 -2 2 5 12 9 21 9 14 -2 20 8 17
29 0 4 4 7 11 7 9 0 8 3 -1 13 -11 10 -14 9 -18 -1 -3 -6 -9 -9 -15 -6 -5 3
-8 -2 -6 -11 2 -10 -3 -20 -9 -22 -7 -3 -13 2 -13 11 0 9 -4 16 -9 16 -5 0 -9
-25 -10 -55 l0 -55 87 -2 c48 -1 117 -3 153 -3 36 -1 70 -5 77 -9 14 -8 87 42
101 69 13 26 24 195 12 195 -5 0 -12 -15 -16 -32z"/>
<path d="M1828 1838 c9 -9 12 -103 12 -361 l0 -349 -32 7 c-18 4 -35 7 -38 7
-44 1 -92 -3 -88 -8 3 -3 26 -7 49 -10 24 -2 59 -7 77 -10 l32 -6 0 -173 c0
-198 8 -184 -98 -186 -34 -1 -62 -5 -62 -10 0 -4 36 -7 80 -6 l81 2 -2 -226
-2 -226 -34 1 c-44 1 -90 56 -47 56 8 0 13 4 10 9 -3 4 -17 6 -31 3 -15 -2
-25 0 -25 7 0 6 9 11 21 11 12 0 17 4 13 11 -3 6 -15 9 -25 6 -11 -3 -19 -1
-19 4 0 5 7 9 16 9 12 0 15 6 10 23 -4 12 -13 45 -20 73 -7 28 -27 76 -45 107
-33 57 -45 72 -35 40 4 -13 -1 -10 -17 7 -13 14 -39 39 -57 55 l-34 30 25 -55
c41 -93 93 -192 99 -188 7 4 68 -43 68 -53 0 -20 -27 -7 -44 22 -10 17 -20 29
-22 26 -9 -8 29 -84 78 -155 27 -41 48 -76 45 -78 -10 -10 -33 8 -45 35 -7 16
-23 40 -35 54 -12 13 -23 29 -25 36 -6 30 -40 81 -46 69 -3 -7 -3 -3 0 9 3 13
-2 35 -10 50 -8 16 -36 71 -61 123 -60 123 -88 160 -115 153 -19 -5 -20 -6 -3
-20 13 -10 14 -13 3 -10 -42 15 -70 33 -65 45 3 7 1 11 -4 8 -21 -13 -32 23
-24 81 7 51 11 58 32 61 71 10 -143 112 -235 112 -19 0 -34 7 -42 21 -13 20
-12 21 35 17 33 -2 48 1 48 9 0 7 8 18 19 26 17 13 18 15 2 43 l-17 29 6 -27
c4 -23 2 -28 -14 -28 -24 0 -36 -16 -19 -23 7 -3 -12 -5 -43 -4 l-57 0 8 29
c5 15 6 53 3 83 -5 46 -3 60 14 78 36 41 43 69 39 155 -2 46 -7 86 -10 89 -3
4 -6 15 -6 25 0 10 -4 18 -9 18 -5 0 -14 12 -20 28 -18 45 -87 134 -116 149
-14 8 -33 12 -41 9 -8 -3 -14 -2 -14 3 0 21 -69 20 -150 -2 -136 -38 -169 -62
-235 -172 -44 -73 -56 -121 -41 -166 7 -19 9 -45 5 -59 l-6 -25 -11 25 c-9 22
-11 23 -17 8 -9 -22 -29 -23 -49 -2 -10 10 -16 11 -16 4 0 -7 -7 -9 -17 -6 -9
4 -20 1 -25 -6 -4 -7 -8 17 -8 58 0 94 -21 113 -86 79 -16 -8 -25 -15 -19 -15
5 0 4 -5 -3 -12 -15 -15 -16 -31 -1 -22 6 3 15 0 20 -7 6 -11 9 -8 9 8 0 20
33 53 52 53 8 0 -8 -55 -28 -92 -11 -21 -11 -28 -2 -32 7 -3 3 -3 -9 0 -13 3
-23 1 -23 -5 0 -19 -39 -22 -67 -4 -15 10 -24 12 -20 6 12 -20 -1 -15 -23 7
-12 12 -25 18 -30 15 -6 -4 -10 1 -10 9 0 9 4 16 9 16 5 0 16 11 25 25 14 21
14 24 1 19 -8 -4 -15 -12 -15 -20 0 -8 -4 -14 -10 -14 -13 0 -13 17 0 25 6 4
8 15 5 26 -4 10 -2 19 3 19 6 0 12 -6 14 -12 4 -10 10 -10 33 0 15 7 25 15 22
19 -4 3 -13 0 -22 -7 -12 -10 -16 -9 -21 4 -3 9 -11 13 -17 9 -5 -3 -15 0 -21
8 -6 8 -22 14 -36 15 -14 0 -32 3 -40 5 -12 3 -15 -13 -18 -93 -3 -94 -2 -98
20 -102 43 -10 255 -19 323 -15 80 5 184 -28 185 -58 0 -7 5 -13 10 -13 6 0
10 6 9 13 -1 6 -1 21 0 32 2 19 2 19 16 1 9 -12 22 -17 38 -14 21 4 24 1 23
-19 0 -12 -4 -23 -8 -23 -4 0 -15 -14 -25 -30 -10 -17 -23 -28 -30 -26 -17 7
-17 -15 0 -38 13 -18 14 -18 21 -1 6 17 7 17 26 0 11 -10 20 -24 20 -30 0 -17
23 -25 40 -15 9 6 8 10 -6 19 -16 8 -9 11 36 12 l55 2 -58 7 c-70 9 -103 31
-36 24 l44 -5 -37 20 c-35 20 -36 23 -27 53 5 18 9 52 9 75 0 34 -5 45 -22 54
-13 7 -24 12 -25 11 -2 -1 -11 -1 -20 -1 -10 1 -4 5 12 8 22 6 34 3 45 -9 35
-38 149 -63 188 -41 15 9 14 11 -8 20 l-25 10 28 0 c43 1 31 21 -13 21 -35 0
-40 3 -40 23 0 13 3 27 7 31 7 7 8 11 11 74 2 27 6 32 27 32 44 0 68 -78 51
-162 -7 -34 -6 -39 17 -47 14 -6 28 -18 31 -28 11 -30 55 -75 68 -67 6 4 8 3
4 -4 -3 -5 0 -13 6 -16 9 -3 7 -9 -7 -21 -18 -15 -18 -17 -4 -28 24 -18 35
-137 15 -174 -16 -32 -99 -113 -116 -113 -11 0 -23 -41 -24 -85 -1 -49 -30
-44 -42 7 -8 38 -15 46 -59 68 -48 24 -87 71 -72 86 4 4 20 -7 35 -24 l27 -33
43 22 c36 18 43 26 39 45 -3 18 5 29 39 54 24 17 49 41 56 53 8 17 2 14 -27
-12 -50 -44 -113 -71 -179 -78 -48 -5 -55 -3 -69 18 -17 23 -17 23 -32 4 -8
-11 -15 -23 -15 -27 0 -5 -9 -8 -20 -8 -29 0 -149 -47 -192 -75 -60 -40 -64
-36 -58 55 3 44 2 80 -2 80 -5 0 -9 -10 -9 -22 -6 -119 -6 -159 1 -163 4 -3 4
-22 0 -42 -6 -23 -5 -42 1 -49 17 -21 -5 -24 -56 -9 -58 18 -68 19 -59 3 4 -7
3 -8 -4 -4 -12 7 -26 -14 -36 -59 l-7 -30 21 23 c33 35 66 53 84 46 9 -3 13
-11 9 -17 -4 -6 2 -8 14 -5 12 3 27 2 34 -3 10 -6 11 -9 2 -9 -7 0 -13 -7 -13
-15 0 -8 4 -15 9 -15 9 0 21 -206 14 -228 -17 -45 -35 30 -36 150 0 43 -3 78
-7 78 -25 0 -109 -132 -195 -306 -37 -74 -69 -133 -71 -131 -5 4 83 192 113
242 10 17 35 58 55 92 21 34 38 65 38 68 0 3 -25 -8 -56 -26 -31 -17 -54 -26
-50 -21 10 16 97 64 103 58 9 -8 43 24 43 40 0 18 -48 11 -88 -12 -57 -32 -62
-38 -77 -79 -8 -22 -14 -31 -14 -20 -1 11 10 38 24 60 49 79 88 181 51 132
-15 -20 -32 -6 -20 16 4 6 -4 2 -17 -11 -19 -18 -24 -34 -26 -80 -1 -52 -5
-62 -52 -122 -50 -63 -52 -67 -49 -122 3 -55 10 -70 23 -48 3 6 1 10 -6 10 -7
0 1 15 18 33 17 17 33 40 35 50 1 10 8 18 13 18 6 0 19 8 30 18 41 36 55 44
55 32 0 -8 -68 -60 -86 -66 -1 0 -5 -11 -9 -25 -7 -24 -7 -24 11 -9 41 34 47
29 8 -7 -23 -22 -39 -45 -36 -52 2 -8 -5 -16 -18 -19 -16 -4 -18 -8 -8 -14 10
-7 8 -12 -9 -24 -19 -13 -23 -26 -23 -70 0 -33 5 -55 13 -58 9 -4 9 -7 -1 -15
-10 -7 -7 -16 14 -41 14 -18 40 -64 55 -103 29 -70 30 -101 4 -65 -14 20 -52
19 -47 -1 4 -21 -18 -13 -28 10 -8 22 -9 22 -9 -4 l-1 -28 925 0 925 0 0 925
c0 864 -1 925 -17 925 -13 0 -14 -3 -5 -12z m-1143 -88 c-3 -5 -16 -15 -28
-21 -21 -10 -21 -9 2 10 25 23 36 27 26 11z m-22 -62 c-3 -16 -10 -25 -16 -21
-5 3 -7 1 -4 -4 4 -6 -2 -21 -13 -33 -11 -13 -20 -19 -20 -14 0 6 6 16 13 23
10 10 8 15 -6 25 -14 11 -15 15 -4 25 8 6 16 9 19 6 3 -3 11 1 18 10 17 20 19
16 13 -17z m30 -27 c-3 -11 -16 -30 -30 -43 l-26 -23 13 25 c12 23 40 60 46
60 1 0 0 -9 -3 -19z m334 -18 c-4 -3 1 -12 11 -20 9 -8 11 -12 5 -8 -9 4 -11
1 -7 -9 3 -9 10 -14 14 -11 5 3 15 -15 23 -40 14 -39 14 -45 1 -45 -11 0 -12
-5 -6 -17 13 -26 23 -83 14 -83 -5 0 -13 5 -20 12 -9 9 -12 8 -12 -7 -1 -18
-2 -18 -13 3 -7 12 -16 19 -20 16 -4 -4 -7 0 -7 10 0 9 -4 14 -10 11 -5 -3
-10 0 -10 7 0 9 -3 9 -10 -2 -8 -12 -10 -10 -10 10 0 23 -33 90 -45 90 -2 0 0
-12 5 -26 6 -14 10 -29 10 -33 0 -13 -50 0 -51 13 -3 26 -5 32 -17 54 -14 24
-4 30 17 10 11 -11 11 -9 2 9 -15 29 -14 32 9 26 12 -3 20 0 20 7 0 10 4 9 16
-1 13 -10 17 -10 25 2 8 12 10 12 19 -1 5 -8 10 -21 10 -28 0 -7 4 -11 10 -7
5 3 14 -9 19 -27 7 -24 9 -27 10 -11 1 12 -4 34 -9 49 -11 27 -7 54 6 54 4 0
4 -3 1 -7z m-361 -69 c-4 -9 -9 -15 -11 -12 -3 3 -3 13 1 22 4 9 9 15 11 12 3
-3 3 -13 -1 -22z m106 -38 c6 4 9 1 7 -5 -8 -23 -24 -12 -26 16 -1 21 0 23 4
5 2 -12 9 -19 15 -16z m-89 4 c3 -10 -1 -24 -7 -29 -10 -8 -11 -3 -8 19 5 35
8 37 15 10z m28 -16 c-9 -28 -9 -29 -10 -3 -1 14 2 29 6 32 11 12 13 2 4 -29z
m-639 -10 c3 -29 2 -33 -7 -20 -7 9 -15 16 -19 16 -12 0 -6 -24 11 -42 13 -15
14 -21 5 -27 -7 -4 -10 -15 -6 -24 4 -12 1 -17 -14 -17 -24 0 -34 32 -21 67 5
13 9 35 9 48 0 20 10 32 31 34 4 1 9 -15 11 -35z m650 -56 c-6 -6 -7 0 -4 19
5 21 7 23 10 9 2 -10 0 -22 -6 -28z m35 -30 c-3 -8 -6 -5 -6 6 -1 11 2 17 5
13 3 -3 4 -12 1 -19z m-637 -28 c0 -5 -5 -10 -11 -10 -5 0 -7 5 -4 10 3 6 8
10 11 10 2 0 4 -4 4 -10z m504 -61 c-33 -13 -50 -9 -24 5 14 8 29 12 34 8 5
-3 1 -9 -10 -13z m341 11 c3 -5 2 -10 -4 -10 -5 0 -13 5 -16 10 -3 6 -2 10 4
10 5 0 13 -4 16 -10z m73 -44 c-1 -1 -12 -8 -23 -16 -19 -14 -19 -14 -6 3 9
11 10 17 2 17 -6 0 -11 5 -11 10 0 7 7 7 21 0 11 -7 19 -13 17 -14z m-418 -68
c0 -16 -3 -19 -11 -11 -6 6 -8 16 -5 22 11 17 16 13 16 -11z m465 -252 c0 -13
-3 -22 -7 -19 -5 2 -8 -3 -8 -11 0 -26 -107 -182 -118 -171 -8 8 -32 -16 -26
-26 3 -5 -3 -6 -12 -2 -11 4 -15 2 -11 -4 4 -6 0 -13 -8 -17 -27 -10 -11 18
26 45 34 26 107 125 143 197 20 38 21 39 21 8z m225 -101 c-7 -24 -18 -119
-25 -211 l-14 -169 5 155 c3 85 12 186 20 223 8 38 15 71 15 75 1 4 3 -1 6
-12 3 -10 0 -38 -7 -61z m-663 -52 c10 -14 33 -41 52 -59 19 -19 31 -37 28
-41 -4 -4 -14 3 -23 15 -8 12 -20 20 -25 17 -5 -4 -9 0 -9 8 0 8 -7 17 -15 21
-8 3 -15 12 -15 21 0 8 -4 15 -9 15 -5 0 -11 7 -15 15 -9 25 12 17 31 -12z
m709 -108 c3 -19 20 -52 36 -73 17 -20 81 -114 143 -208 62 -94 123 -178 136
-187 16 -12 19 -17 8 -17 -8 0 -27 12 -41 27 -27 30 -125 178 -151 228 -24 47
-106 155 -117 155 -7 0 -7 -6 -1 -19 6 -10 7 -22 3 -26 -4 -5 -1 -5 6 -1 6 4
12 2 12 -3 0 -6 -5 -11 -10 -11 -6 0 -4 -15 5 -36 15 -36 12 -60 -6 -49 -5 4
-9 1 -9 -4 0 -6 -4 -11 -8 -11 -7 0 -17 39 -38 149 -5 30 -4 33 12 27 17 -6
17 -6 1 12 -18 20 -23 47 -7 37 5 -3 8 7 5 25 -5 41 13 28 21 -15z m-1216 15
c-8 -5 -18 -6 -24 -3 -5 4 -1 10 10 13 24 9 34 2 14 -10z m1254 5 c4 -10 -1
-15 -16 -15 -17 0 -18 2 -8 15 7 8 14 15 15 15 2 0 5 -7 9 -15z m-1037 -57
c-2 -13 -4 -3 -4 22 0 25 2 35 4 23 2 -13 2 -33 0 -45z m418 42 c19 -8 19 -9
-2 -9 -12 -1 -25 4 -28 9 -7 12 2 12 30 0z m745 -110 c44 -56 14 -52 -33 4
-20 25 -37 47 -37 51 0 14 41 -18 70 -55z m-1147 -5 c5 -28 4 -34 -3 -20 -8
19 -14 73 -6 64 2 -2 6 -22 9 -44z m457 29 c0 -8 -4 -12 -10 -9 -5 3 -10 10
-10 16 0 5 5 9 10 9 6 0 10 -7 10 -16z m120 -11 c0 -14 -3 -23 -7 -19 -10 10
-11 46 -1 46 4 0 8 -12 8 -27z m110 11 c0 -8 -5 -12 -10 -9 -6 4 -8 11 -5 16
9 14 15 11 15 -7z m110 -9 c0 -14 -4 -25 -9 -25 -4 0 -6 11 -3 25 2 14 6 25 8
25 2 0 4 -11 4 -25z m-680 -25 c0 -11 -4 -20 -9 -20 -5 0 -7 9 -4 20 3 11 7
20 9 20 2 0 4 -9 4 -20z m97 -32 c-3 -7 -5 -2 -5 12 0 14 2 19 5 13 2 -7 2
-19 0 -25z m-100 -45 c-3 -10 -5 -4 -5 12 0 17 2 24 5 18 2 -7 2 -21 0 -30z
m933 7 c0 -5 -5 -10 -11 -10 -5 0 -7 5 -4 10 3 6 8 10 11 10 2 0 4 -4 4 -10z
m155 -10 c3 -6 -1 -7 -9 -4 -18 7 -21 14 -7 14 6 0 13 -4 16 -10z m-978 -52
c-2 -13 -4 -5 -4 17 -1 22 1 32 4 23 2 -10 2 -28 0 -40z m350 -15 c-2 -16 -4
-5 -4 22 0 28 2 40 4 28 2 -13 2 -35 0 -50z m-667 20 c-18 -32 -70 -88 -70
-76 0 10 68 93 77 93 2 0 -1 -8 -7 -17z m987 -5 c-3 -8 -6 -5 -6 6 -1 11 2 17
5 13 3 -3 4 -12 1 -19z m206 -88 c15 -12 24 -26 21 -32 -4 -7 -2 -8 4 -4 13 8
36 -30 27 -44 -4 -6 -3 -9 2 -8 5 2 24 -14 42 -34 18 -21 41 -38 52 -38 13 0
17 -5 12 -17 -6 -14 -1 -15 38 -9 24 4 46 11 47 16 2 6 30 10 63 10 l59 0 0
-75 c0 -49 -6 -86 -17 -109 l-16 -35 -228 -1 -229 0 10 26 c6 14 10 42 10 62
0 20 5 55 11 77 6 21 12 69 13 105 l1 65 35 6 35 6 -32 2 -33 1 0 68 1 67 22
-42 c12 -23 34 -51 50 -63z m-965 -40 c-1 -28 -2 -25 -8 15 -5 28 -8 66 -8 85
1 28 2 25 8 -15 5 -27 8 -66 8 -85z m761 -153 c-4 -56 -6 -26 -6 93 0 132 2
152 6 82 3 -51 3 -130 0 -175z m-904 231 c4 -13 9 -84 11 -158 3 -117 1 -137
-13 -148 -19 -14 -10 -16 15 -3 15 8 17 2 17 -50 l0 -59 -97 0 -97 0 -11 42
c-7 23 -13 58 -14 77 -2 20 -6 46 -10 58 -6 18 -2 25 18 35 16 7 29 23 34 42
7 25 15 33 48 41 60 15 65 22 63 74 -3 67 20 98 36 49z m352 -20 c-3 -8 -6 -5
-6 6 -1 11 2 17 5 13 3 -3 4 -12 1 -19z m340 0 c-3 -8 -6 -5 -6 6 -1 11 2 17
5 13 3 -3 4 -12 1 -19z m100 -40 c-2 -13 -4 -5 -4 17 -1 22 1 32 4 23 2 -10 2
-28 0 -40z m-550 0 c-3 -8 -6 -5 -6 6 -1 11 2 17 5 13 3 -3 4 -12 1 -19z
m-305 -13 c-2 -14 -12 -26 -21 -27 -9 0 -21 -2 -27 -2 -6 -1 -19 -8 -29 -16
-17 -14 -17 -14 -4 8 8 12 19 22 25 22 6 0 19 9 29 20 24 27 33 25 27 -5z
m-120 -42 c-11 -21 -30 -47 -43 -58 -21 -18 -21 -18 2 11 14 17 31 46 39 63 7
17 15 30 17 27 2 -2 -4 -21 -15 -43z m545 -5 c-3 -7 -5 -2 -5 12 0 14 2 19 5
13 2 -7 2 -19 0 -25z m220 10 c-3 -8 -6 -5 -6 6 -1 11 2 17 5 13 3 -3 4 -12 1
-19z m-330 -20 c-3 -8 -6 -5 -6 6 -1 11 2 17 5 13 3 -3 4 -12 1 -19z m-100
-10 c-3 -8 -6 -5 -6 6 -1 11 2 17 5 13 3 -3 4 -12 1 -19z m13 -72 c0 -39 -6
-30 -13 19 -4 27 -3 35 3 25 5 -8 10 -28 10 -44z m97 22 c-3 -7 -5 -2 -5 12 0
14 2 19 5 13 2 -7 2 -19 0 -25z m430 -10 c-3 -8 -6 -5 -6 6 -1 11 2 17 5 13 3
-3 4 -12 1 -19z m-922 -8 c3 -5 1 -10 -4 -10 -6 0 -11 5 -11 10 0 6 2 10 4 10
3 0 8 -4 11 -10z m-17 -32 c7 -7 12 -21 12 -33 0 -12 4 -25 10 -31 9 -9 42
-106 37 -110 -10 -10 -27 18 -29 49 -2 27 -9 39 -28 48 -15 7 -20 13 -12 16
17 6 15 33 -5 55 -18 20 -4 25 15 6z m-21 -34 c-3 -3 -12 -4 -19 -1 -8 3 -5 6
6 6 11 1 17 -2 13 -5z m23 -104 c0 -5 -2 -10 -4 -10 -3 0 -8 5 -11 10 -3 6 -1
10 4 10 6 0 11 -4 11 -10z m847 -12 c-3 -8 -6 -5 -6 6 -1 11 2 17 5 13 3 -3 4
-12 1 -19z m290 -15 c-3 -10 -5 -5 -5 12 0 17 2 24 5 18 2 -7 2 -21 0 -30z"/>
<path d="M1047 1567 c-3 -8 -2 -20 3 -26 5 -9 8 -4 8 13 0 29 -3 32 -11 13z"/>
<path d="M1405 210 c-3 -5 -2 -10 4 -10 5 0 13 5 16 10 3 6 2 10 -4 10 -5 0
-13 -4 -16 -10z"/>
<path d="M1575 210 c-3 -5 -2 -10 4 -10 5 0 13 5 16 10 3 6 2 10 -4 10 -5 0
-13 -4 -16 -10z"/>
<path d="M1715 200 c-13 -5 -14 -9 -5 -9 8 0 24 4 35 9 13 5 14 9 5 9 -8 0
-24 -4 -35 -9z"/>
<path d="M1795 200 c-7 -11 22 -26 32 -16 4 3 -1 6 -11 6 -9 0 -14 5 -11 10 3
6 4 10 1 10 -3 0 -8 -5 -11 -10z"/>
<path d="M1720 180 l-35 -7 38 -2 c20 0 37 4 37 9 0 6 -1 9 -2 9 -2 -1 -19 -5
-38 -9z"/>
<path d="M1627 161 c-4 -18 -2 -19 14 -10 15 7 19 6 19 -6 0 -8 7 -15 15 -15
11 0 12 6 6 23 -11 29 -47 35 -54 8z"/>
<path d="M1712 153 c4 -2 4 -11 1 -19 -3 -9 1 -14 13 -14 16 0 17 2 4 10 -13
8 -12 10 3 10 10 0 17 -8 17 -20 0 -16 -7 -20 -32 -21 -31 -1 -32 -1 -8 -9
l25 -8 -26 -1 c-26 -1 -38 -31 -12 -31 7 0 13 -5 13 -11 0 -6 -9 -8 -22 -4
-20 5 -21 4 -5 -5 23 -15 31 -8 56 43 24 50 27 77 7 77 -8 0 -20 2 -28 3 -7 2
-10 2 -6 0z"/>
<path d="M1808 133 c7 -3 16 -2 19 1 4 3 -2 6 -13 5 -11 0 -14 -3 -6 -6z"/>
<path d="M1776 103 c-9 -22 -8 -23 19 -23 15 0 25 6 25 14 0 19 -37 27 -44 9z"/>
<path d="M1604 91 c10 -16 46 -20 46 -5 0 8 -10 14 -26 14 -14 0 -23 -4 -20
-9z"/>
<path d="M1773 63 c9 -2 23 -2 30 0 6 3 -1 5 -18 5 -16 0 -22 -2 -12 -5z"/>
<path d="M1747 43 c-14 -13 -6 -23 16 -23 14 0 24 6 24 15 0 15 -28 21 -40 8z"/>
<path d="M555 1810 c-3 -5 -1 -10 4 -10 6 0 11 5 11 10 0 6 -2 10 -4 10 -3 0
-8 -4 -11 -10z"/>
<path d="M0 1759 c0 -5 5 -7 10 -4 5 3 10 8 10 11 0 2 -4 4 -10 4 -5 0 -10 -5
-10 -11z"/>
<path d="M352 1701 c-24 -20 -30 -44 -9 -35 16 6 51 54 39 54 -5 0 -19 -8 -30
-19z"/>
<path d="M249 1691 c-13 -11 -20 -23 -16 -28 5 -4 15 0 22 10 10 13 20 16 41
11 28 -6 28 -6 9 9 -26 21 -28 21 -56 -2z"/>
<path d="M1237 1688 c-13 -13 -32 -28 -42 -34 -10 -6 -21 -17 -23 -25 -4 -10
0 -9 15 4 11 9 24 17 29 17 10 1 64 46 64 55 0 12 -21 4 -43 -17z"/>
<path d="M1135 1669 c-4 -6 -5 -12 -2 -15 2 -3 7 2 10 11 7 17 1 20 -8 4z"/>
<path d="M1483 1580 c0 -25 2 -35 4 -22 2 12 2 32 0 45 -2 12 -4 2 -4 -23z"/>
<path d="M375 1590 c-3 -6 1 -7 9 -4 18 7 21 14 7 14 -6 0 -13 -4 -16 -10z"/>
<path d="M410 1579 c0 -5 16 -9 35 -9 19 0 35 4 35 9 0 5 -16 9 -35 9 -19 0
-35 -4 -35 -9z"/>
<path d="M1310 1540 c-37 -8 -32 -14 10 -10 14 1 29 6 35 11 10 10 7 10 -45
-1z"/>
<path d="M1465 1520 c-19 -8 -19 -9 3 -9 12 -1 22 4 22 9 0 6 -1 10 -2 9 -2 0
-12 -4 -23 -9z"/>
<path d="M360 1475 c0 -8 5 -15 10 -15 6 0 10 7 10 15 0 8 -4 15 -10 15 -5 0
-10 -7 -10 -15z"/>
<path d="M1187 1465 c-4 -8 -2 -17 3 -20 6 -4 10 3 10 14 0 25 -6 27 -13 6z"/>
<path d="M213 1444 c-7 -19 2 -28 22 -21 19 8 19 23 0 31 -9 3 -18 -1 -22 -10z"/>
<path d="M1240 1360 c-8 -5 -17 -7 -21 -4 -4 2 -10 0 -14 -6 -3 -5 -15 -10
-26 -10 -10 0 -19 -6 -19 -13 0 -9 27 -13 94 -15 103 -4 136 6 136 40 l0 22
-20 -22 c-22 -24 -35 -27 -44 -13 -3 5 -16 7 -28 4 -13 -4 -25 0 -33 10 -7 10
-16 13 -25 7z"/>
<path d="M1635 1330 c-3 -5 -1 -10 4 -10 6 0 11 5 11 10 0 6 -2 10 -4 10 -3 0
-8 -4 -11 -10z"/>
<path d="M1820 1329 c0 -8 -23 -10 -75 -7 -42 3 -78 2 -80 -2 -8 -13 24 -20
96 -20 62 0 69 2 69 20 0 11 -2 20 -5 20 -3 0 -5 -5 -5 -11z"/>
<path d="M4 1295 c0 -19 3 -29 7 -23 5 7 11 9 15 5 4 -4 -1 -16 -11 -27 -10
-11 -15 -23 -10 -28 4 -4 10 -1 12 6 3 6 12 12 21 12 10 0 13 3 7 8 -5 4 -10
24 -10 44 0 28 -4 38 -15 38 -12 0 -16 -10 -16 -35z"/>
<path d="M259 1313 c-1 -10 -1 -24 0 -32 2 -7 -2 -10 -8 -6 -7 4 -11 -5 -11
-24 0 -17 4 -31 8 -31 12 0 35 78 27 90 -3 6 -1 10 4 10 6 0 11 -4 11 -10 0
-5 4 -10 10 -10 5 0 7 7 4 15 -8 21 -44 19 -45 -2z"/>
<path d="M56 1295 c-3 -9 0 -15 9 -15 16 0 20 16 6 24 -5 3 -11 -1 -15 -9z"/>
<path d="M440 1301 c0 -5 -7 -17 -16 -25 -12 -12 -12 -16 -2 -16 19 0 11 -79
-10 -102 -22 -25 -59 -22 -88 7 -20 20 -36 25 -77 27 -70 2 -74 2 -83 10 -3 4
-14 4 -23 -1 -9 -5 -39 -5 -67 -2 -49 7 -74 -2 -74 -28 0 -6 62 -9 158 -8
l157 2 3 -42 c3 -48 12 -54 27 -20 7 16 20 23 47 25 24 2 39 9 42 20 8 30 18
162 12 162 -3 0 -6 -4 -6 -9z"/>
<path d="M495 1270 c3 -5 11 -10 16 -10 6 0 7 5 4 10 -3 6 -11 10 -16 10 -6 0
-7 -4 -4 -10z"/>
<path d="M779 1241 l30 -38 -26 -12 c-36 -16 -21 -27 17 -11 39 16 38 31 -5
69 -48 42 -53 39 -16 -8z"/>
<path d="M698 1233 c7 -3 16 -2 19 1 4 3 -2 6 -13 5 -11 0 -14 -3 -6 -6z"/>
<path d="M486 1215 c-16 -12 -17 -15 -4 -15 9 0 18 7 22 15 7 18 6 18 -18 0z"/>
<path d="M1420 1216 c0 -8 5 -18 10 -21 6 -3 10 3 10 14 0 12 -4 21 -10 21 -5
0 -10 -6 -10 -14z"/>
<path d="M1234 1167 c3 -10 6 -23 6 -28 0 -6 8 -6 19 1 24 12 34 13 26 1 -7
-13 19 -19 88 -20 31 0 57 4 57 9 0 6 -15 9 -32 8 -28 -3 -33 0 -30 17 l3 20
-17 -20 c-16 -20 -16 -20 -9 3 4 13 2 22 -4 22 -6 0 -11 -4 -11 -9 0 -11 -83
-8 -93 4 -5 6 -6 2 -3 -8z"/>
<path d="M1636 1145 c-11 -8 -17 -17 -14 -20 3 -3 16 3 29 14 27 23 14 28 -15
6z"/>
<path d="M590 1142 c0 -9 -20 -11 -70 -9 -38 2 -70 0 -70 -5 0 -4 12 -9 28
-10 27 -1 42 -4 52 -8 12 -5 90 -6 90 -1 -1 12 -30 44 -30 33z"/>
<path d="M1560 1139 c-8 -5 -34 -8 -57 -7 -55 3 -65 -8 -15 -17 40 -6 116 15
96 27 -5 4 -16 2 -24 -3z"/>
<path d="M82 1043 c-5 -10 -7 -24 -5 -30 3 -7 -6 -30 -18 -50 -13 -20 -17 -33
-11 -29 14 8 16 -5 4 -20 -18 -19 -45 -101 -48 -144 l-3 -45 44 3 c25 2 45 8
45 13 0 5 -3 8 -7 8 -5 -1 -22 -1 -40 0 -30 1 -31 2 -23 31 5 16 22 42 38 58
41 40 63 82 43 82 -5 0 -12 -11 -15 -25 -4 -14 -14 -25 -23 -25 -15 0 -15 1 0
18 10 10 14 22 11 25 -4 4 -1 14 7 23 11 14 11 18 1 22 -8 2 -10 8 -4 15 11
14 26 87 18 87 -3 0 -9 -8 -14 -17z"/>
<path d="M4 909 c-3 -6 -1 -16 6 -22 10 -9 12 -8 7 5 -3 9 -1 19 6 22 9 3 9 5
0 5 -6 1 -15 -4 -19 -10z"/>
<path d="M820 895 c0 -8 5 -15 10 -15 6 0 10 7 10 15 0 8 -4 15 -10 15 -5 0
-10 -7 -10 -15z"/>
<path d="M1470 903 c-18 -5 -54 -52 -46 -60 3 -3 17 2 30 11 14 9 33 16 42 16
11 0 14 5 10 16 -3 9 -6 18 -6 20 0 4 -8 4 -30 -3z"/>
<path d="M1520 901 c0 -3 6 -14 13 -23 12 -15 14 -15 25 3 16 25 16 27 -13 27
-14 0 -25 -3 -25 -7z"/>
<path d="M268 883 c7 -3 16 -2 19 1 4 3 -2 6 -13 5 -11 0 -14 -3 -6 -6z"/>
<path d="M1500 855 c-10 -13 -9 -15 9 -15 11 0 21 4 21 9 0 18 -18 21 -30 6z"/>
<path d="M1571 856 c-13 -16 -2 -29 16 -18 7 4 8 13 4 20 -6 10 -10 10 -20 -2z"/>
<path d="M1455 830 c-16 -7 -17 -9 -3 -9 9 -1 20 4 23 9 7 11 7 11 -20 0z"/>
<path d="M1397 815 c-5 -10 0 -15 14 -15 12 0 19 5 17 12 -6 18 -25 20 -31 3z"/>
<path d="M228 813 c6 -2 18 -2 25 0 6 3 1 5 -13 5 -14 0 -19 -2 -12 -5z"/>
<path d="M280 810 c0 -5 5 -10 11 -10 5 0 7 5 4 10 -3 6 -8 10 -11 10 -2 0 -4
-4 -4 -10z"/>
<path d="M1590 811 c0 -11 29 -35 35 -29 10 9 -7 38 -21 38 -8 0 -14 -4 -14
-9z"/>
<path d="M1487 776 c10 -14 29 -28 43 -31 14 -4 37 -18 52 -32 15 -15 30 -25
32 -22 2 2 -5 23 -15 47 -19 45 -47 62 -100 62 l-30 0 18 -24z"/>
<path d="M1622 748 c2 -6 10 -14 16 -16 7 -2 10 2 6 12 -7 18 -28 22 -22 4z"/>
<path d="M1635 700 c17 -56 65 -123 65 -91 0 19 -37 86 -56 102 -15 13 -16 12
-9 -11z"/>
<path d="M1695 700 c3 -14 10 -38 14 -55 4 -16 17 -45 28 -63 l20 -33 37 77
c20 42 36 80 36 85 0 4 -16 1 -35 -7 -46 -19 -75 -18 -92 4 -13 16 -14 15 -8
-8z"/>
<path d="M20 644 c0 -8 5 -12 10 -9 6 3 10 10 10 16 0 5 -4 9 -10 9 -5 0 -10
-7 -10 -16z"/>
<path d="M1715 524 c7 -28 23 -74 35 -102 18 -42 27 -52 47 -52 18 0 23 4 19
18 -2 9 -7 31 -11 47 -3 17 -27 55 -54 85 l-49 55 13 -51z"/>
<path d="M1795 350 c3 -5 13 -10 21 -10 8 0 14 5 14 10 0 6 -9 10 -21 10 -11
0 -17 -4 -14 -10z"/>
<path d="M0 175 c0 -8 7 -15 16 -15 14 0 14 3 4 15 -7 8 -14 15 -16 15 -2 0
-4 -7 -4 -15z"/>
<path d="M4 125 c-8 -19 15 -77 27 -69 5 3 7 10 4 15 -4 5 1 9 9 9 12 0 13 5
5 30 -12 32 -36 40 -45 15z"/>
</g>
</svg>
